<svg width="20" height="20" viewBox="0 0 20 20" fill="none" xmlns="http://www.w3.org/2000/svg">
<path d="M17.1056 2.27686H2.89472C2.55296 2.27686 2.27686 2.55296 2.27686 2.89472V17.1056C2.27686 17.4473 2.55296 17.7234 2.89472 17.7234H17.1056C17.4473 17.7234 17.7234 17.4473 17.7234 17.1056V2.89472C17.7234 2.55296 17.4473 2.27686 17.1056 2.27686ZM15.3215 6.78533H14.0877C13.1204 6.78533 12.9331 7.24486 12.9331 7.92065V9.40932H15.2423L14.9411 11.7398H12.9331V17.7234H10.5253V11.7417H8.51148V9.40932H10.5253V7.69088C10.5253 5.69634 11.7437 4.60929 13.5239 4.60929C14.3773 4.60929 15.1091 4.67301 15.3234 4.70197V6.78533H15.3215Z" fill="white"/>
</svg>
