<svg width="28" height="28" viewBox="0 0 28 28" fill="none" xmlns="http://www.w3.org/2000/svg">
<path d="M15.8771 23.2137C16.4786 23.2137 17.0555 22.9748 17.4809 22.5494C17.9062 22.1241 18.1452 21.5471 18.1452 20.9456C18.1452 20.3441 17.9062 19.7671 17.4809 19.3418C17.0555 18.9164 16.4786 18.6775 15.8771 18.6775C15.2755 18.6775 14.6986 18.9164 14.2732 19.3418C13.8479 19.7671 13.6089 20.3441 13.6089 20.9456C13.6089 21.5471 13.8479 22.1241 14.2732 22.5494C14.6986 22.9748 15.2755 23.2137 15.8771 23.2137ZM7.93855 23.2137C8.5401 23.2137 9.11701 22.9748 9.54237 22.5494C9.96773 22.1241 10.2067 21.5471 10.2067 20.9456C10.2067 20.3441 9.96773 19.7671 9.54237 19.3418C9.11701 18.9164 8.5401 18.6775 7.93855 18.6775C7.337 18.6775 6.76009 18.9164 6.33473 19.3418C5.90937 19.7671 5.67041 20.3441 5.67041 20.9456C5.67041 21.5471 5.90937 22.1241 6.33473 22.5494C6.76009 22.9748 7.337 23.2137 7.93855 23.2137ZM22.7246 7.24941C23.0077 7.24028 23.2762 7.12139 23.4732 6.9179C23.6702 6.71441 23.7804 6.44225 23.7804 6.159C23.7804 5.87574 23.6702 5.60359 23.4732 5.4001C23.2762 5.1966 23.0077 5.07772 22.7246 5.06859H21.4193C20.3963 5.06859 19.5118 5.77852 19.2895 6.7765L17.8685 13.1749C17.6462 14.1729 16.7616 14.8829 15.7387 14.8829H7.21955L5.58422 8.33925H16.1821C16.4626 8.32646 16.7273 8.20604 16.9212 8.00306C17.1152 7.80008 17.2234 7.53014 17.2234 7.24941C17.2234 6.96867 17.1152 6.69874 16.9212 6.49576C16.7273 6.29278 16.4626 6.17236 16.1821 6.15957H5.58422C5.25269 6.15947 4.9255 6.23496 4.62753 6.38029C4.32956 6.52563 4.06864 6.73699 3.86462 6.99831C3.6606 7.25962 3.51884 7.56401 3.45012 7.88834C3.3814 8.21267 3.38753 8.5484 3.46804 8.87L5.10337 15.4113C5.22126 15.8833 5.49359 16.3023 5.87704 16.6018C6.2605 16.9012 6.73305 17.0638 7.21955 17.0637H15.7387C16.7312 17.0638 17.6942 16.7254 18.4684 16.1044C19.2426 15.4833 19.7819 14.6168 19.9971 13.6478L21.4193 7.24941H22.7246Z" fill="white"/>
</svg>
