<svg width="25" height="25" viewBox="0 0 25 25" fill="none" xmlns="http://www.w3.org/2000/svg">
<path d="M14.5834 20.8332C15.1359 20.8332 15.6658 20.6137 16.0566 20.223C16.4473 19.8323 16.6667 19.3024 16.6667 18.7498C16.6667 18.1973 16.4473 17.6674 16.0566 17.2767C15.6658 16.886 15.1359 16.6665 14.5834 16.6665C14.0309 16.6665 13.501 16.886 13.1103 17.2767C12.7196 17.6674 12.5001 18.1973 12.5001 18.7498C12.5001 19.3024 12.7196 19.8323 13.1103 20.223C13.501 20.6137 14.0309 20.8332 14.5834 20.8332ZM7.29174 20.8332C7.84428 20.8332 8.37418 20.6137 8.76488 20.223C9.15558 19.8323 9.37508 19.3024 9.37508 18.7498C9.37508 18.1973 9.15558 17.6674 8.76488 17.2767C8.37418 16.886 7.84428 16.6665 7.29174 16.6665C6.73921 16.6665 6.20931 16.886 5.81861 17.2767C5.4279 17.6674 5.20841 18.1973 5.20841 18.7498C5.20841 19.3024 5.4279 19.8323 5.81861 20.223C6.20931 20.6137 6.73921 20.8332 7.29174 20.8332ZM20.873 6.16963C21.133 6.16124 21.3796 6.05204 21.5606 5.86513C21.7416 5.67822 21.8428 5.42824 21.8428 5.16807C21.8428 4.90789 21.7416 4.65791 21.5606 4.471C21.3796 4.28409 21.133 4.17489 20.873 4.1665H19.674C18.7345 4.1665 17.922 4.81859 17.7178 5.73525L16.4126 11.6123C16.2084 12.529 15.3959 13.1811 14.4563 13.1811H6.63133L5.12924 7.17067H14.8636C15.1212 7.15892 15.3644 7.04831 15.5425 6.86187C15.7206 6.67543 15.82 6.42749 15.82 6.16963C15.82 5.91177 15.7206 5.66383 15.5425 5.47739C15.3644 5.29094 15.1212 5.18034 14.8636 5.16859H5.12924C4.82473 5.1685 4.5242 5.23784 4.25051 5.37133C3.97682 5.50483 3.73716 5.69896 3.54976 5.93899C3.36236 6.17901 3.23215 6.4586 3.16903 6.7565C3.10591 7.0544 3.11154 7.36277 3.1855 7.65817L4.68758 13.6665C4.79586 14.1 5.046 14.4849 5.39821 14.7599C5.75042 15.0349 6.18447 15.1843 6.63133 15.1842H14.4563C15.368 15.1843 16.2524 14.8735 16.9636 14.3031C17.6748 13.7326 18.1701 12.9367 18.3678 12.0467L19.674 6.16963H20.873Z" fill="black"/>
</svg>
